<svg id="d_mimari" xmlns="http://www.w3.org/2000/svg" class="flowchart" viewBox="0 0 1380.44873046875 353.9302978515625" role="graphics-document document" aria-roledescription="flowchart-v2" width="1380" height="354"><rect width="100%" height="100%" fill="#0d1117"/><style>#d_mimari{font-family:system-ui,-apple-system,Segoe UI,Roboto,sans-serif;font-size:16px;fill:#ccc;}@keyframes edge-animation-frame{from{stroke-dashoffset:0;}}@keyframes dash{to{stroke-dashoffset:0;}}#d_mimari .edge-animation-slow{stroke-dasharray:9,5!important;stroke-dashoffset:900;animation:dash 50s linear infinite;stroke-linecap:round;}#d_mimari .edge-animation-fast{stroke-dasharray:9,5!important;stroke-dashoffset:900;animation:dash 20s linear infinite;stroke-linecap:round;}#d_mimari .error-icon{fill:#a44141;}#d_mimari .error-text{fill:#ddd;stroke:#ddd;}#d_mimari .edge-thickness-normal{stroke-width:1px;}#d_mimari .edge-thickness-thick{stroke-width:3.5px;}#d_mimari .edge-pattern-solid{stroke-dasharray:0;}#d_mimari .edge-thickness-invisible{stroke-width:0;fill:none;}#d_mimari .edge-pattern-dashed{stroke-dasharray:3;}#d_mimari .edge-pattern-dotted{stroke-dasharray:2;}#d_mimari .marker{fill:lightgrey;stroke:lightgrey;}#d_mimari .marker.cross{stroke:lightgrey;}#d_mimari svg{font-family:system-ui,-apple-system,Segoe UI,Roboto,sans-serif;font-size:16px;}#d_mimari p{margin:0;}#d_mimari .label{font-family:system-ui,-apple-system,Segoe UI,Roboto,sans-serif;color:#ccc;}#d_mimari .cluster-label text{fill:#F9FFFE;}#d_mimari .cluster-label span{color:#F9FFFE;}#d_mimari .cluster-label span p{background-color:transparent;}#d_mimari .label text,#d_mimari span{fill:#ccc;color:#ccc;}#d_mimari .node rect,#d_mimari .node circle,#d_mimari .node ellipse,#d_mimari .node polygon,#d_mimari .node path{fill:#1f2020;stroke:#ccc;stroke-width:1px;}#d_mimari .rough-node .label text,#d_mimari .node .label text,#d_mimari .image-shape .label,#d_mimari .icon-shape .label{text-anchor:middle;}#d_mimari .node .katex path{fill:#000;stroke:#000;stroke-width:1px;}#d_mimari .rough-node .label,#d_mimari .node .label,#d_mimari .image-shape .label,#d_mimari .icon-shape .label{text-align:center;}#d_mimari .node.clickable{cursor:pointer;}#d_mimari .root .anchor path{fill:lightgrey!important;stroke-width:0;stroke:lightgrey;}#d_mimari .arrowheadPath{fill:lightgrey;}#d_mimari .edgePaths .path{stroke:lightgrey;stroke-width:1px;}#d_mimari .flowchart-link{stroke:lightgrey;fill:none;}#d_mimari .edgeLabel{background-color:hsl(0, 0%, 34.4117647059%);text-align:center;}#d_mimari .edgeLabel p{background-color:hsl(0, 0%, 34.4117647059%);}#d_mimari .edgeLabel rect{opacity:0.5;background-color:hsl(0, 0%, 34.4117647059%);fill:hsl(0, 0%, 34.4117647059%);}#d_mimari .labelBkg{background-color:rgba(87.75, 87.75, 87.75, 0.5);}#d_mimari .cluster rect{fill:hsl(180, 1.5873015873%, 28.3529411765%);stroke:rgba(255, 255, 255, 0.25);stroke-width:1px;}#d_mimari .cluster text{fill:#F9FFFE;}#d_mimari .cluster span{color:#F9FFFE;}#d_mimari .node .collapsed-indicator{fill:rgba(255, 255, 255, 0.25);stroke:none;opacity:0.6;}#d_mimari .node .collapsed-separator{stroke:rgba(255, 255, 255, 0.25);stroke-width:0.75px;}#d_mimari div.mermaidTooltip{position:absolute;text-align:center;max-width:200px;padding:2px;font-family:system-ui,-apple-system,Segoe UI,Roboto,sans-serif;font-size:12px;background:hsl(20, 1.5873015873%, 12.3529411765%);border:1px solid rgba(255, 255, 255, 0.25);border-radius:2px;pointer-events:none;z-index:100;}#d_mimari .flowchartTitleText{text-anchor:middle;font-size:18px;fill:#ccc;}#d_mimari rect.text{fill:none;stroke-width:0;}#d_mimari .icon-shape,#d_mimari .image-shape{background-color:hsl(0, 0%, 34.4117647059%);text-align:center;}#d_mimari .icon-shape p,#d_mimari .image-shape p{background-color:hsl(0, 0%, 34.4117647059%);padding:2px;}#d_mimari .icon-shape .label rect,#d_mimari .image-shape .label rect{opacity:0.5;background-color:hsl(0, 0%, 34.4117647059%);fill:hsl(0, 0%, 34.4117647059%);}#d_mimari .label-icon{display:inline-block;height:1em;overflow:visible;vertical-align:-0.125em;}#d_mimari .node .label-icon path{fill:currentColor;stroke:revert;stroke-width:revert;}#d_mimari .node .neo-node{stroke:#ccc;}#d_mimari [data-look="neo"].node rect,#d_mimari [data-look="neo"].cluster rect,#d_mimari [data-look="neo"].node polygon{stroke:url(#d_mimari-gradient);filter:drop-shadow( 1px 2px 2px rgba(185,185,185,1));}#d_mimari [data-look="neo"].swimlane.cluster rect{filter:none;}#d_mimari [data-look="neo"].node path{stroke:url(#d_mimari-gradient);stroke-width:1px;}#d_mimari [data-look="neo"].node .outer-path{filter:drop-shadow( 1px 2px 2px rgba(185,185,185,1));}#d_mimari [data-look="neo"].node .neo-line path{stroke:#ccc;filter:none;}#d_mimari [data-look="neo"].node circle{stroke:url(#d_mimari-gradient);filter:drop-shadow( 1px 2px 2px rgba(185,185,185,1));}#d_mimari [data-look="neo"].node circle .state-start{fill:#000000;}#d_mimari [data-look="neo"].icon-shape .icon{fill:url(#d_mimari-gradient);filter:drop-shadow( 1px 2px 2px rgba(185,185,185,1));}#d_mimari [data-look="neo"].icon-shape .icon-neo path{stroke:url(#d_mimari-gradient);filter:drop-shadow( 1px 2px 2px rgba(185,185,185,1));}#d_mimari :root{--mermaid-font-family:system-ui,-apple-system,Segoe UI,Roboto,sans-serif;}#d_mimari .svc>*{fill:rgb(31, 111, 235)!important;stroke:rgb(13, 65, 157)!important;color:rgb(255, 255, 255)!important;}#d_mimari .svc span{fill:rgb(31, 111, 235)!important;stroke:rgb(13, 65, 157)!important;color:rgb(255, 255, 255)!important;}#d_mimari .svc tspan{fill:rgb(255, 255, 255)!important;}#d_mimari .db>*{fill:rgb(13, 17, 23)!important;stroke:rgb(48, 54, 61)!important;color:rgb(201, 209, 217)!important;}#d_mimari .db span{fill:rgb(13, 17, 23)!important;stroke:rgb(48, 54, 61)!important;color:rgb(201, 209, 217)!important;}#d_mimari .db tspan{fill:rgb(201, 209, 217)!important;}#d_mimari .broker>*{fill:rgb(255, 102, 0)!important;stroke:rgb(179, 71, 0)!important;color:rgb(255, 255, 255)!important;}#d_mimari .broker span{fill:rgb(255, 102, 0)!important;stroke:rgb(179, 71, 0)!important;color:rgb(255, 255, 255)!important;}#d_mimari .broker tspan{fill:rgb(255, 255, 255)!important;}</style><g><marker id="d_mimari_flowchart-v2-pointEnd" class="marker flowchart-v2" viewBox="0 0 10 10" refX="5" refY="5" markerUnits="userSpaceOnUse" markerWidth="8" markerHeight="8" orient="auto"><path d="M 0 0 L 10 5 L 0 10 z" class="arrowMarkerPath" style="stroke-width: 1; stroke-dasharray: 1, 0;"></path></marker><marker id="d_mimari_flowchart-v2-pointStart" class="marker flowchart-v2" viewBox="0 0 10 10" refX="4.5" refY="5" markerUnits="userSpaceOnUse" markerWidth="8" markerHeight="8" orient="auto"><path d="M 0 5 L 10 10 L 10 0 z" class="arrowMarkerPath" style="stroke-width: 1; stroke-dasharray: 1, 0;"></path></marker><marker id="d_mimari_flowchart-v2-pointEnd-margin" class="marker flowchart-v2" viewBox="0 0 11.5 14" refX="11.5" refY="7" markerUnits="userSpaceOnUse" markerWidth="10.5" markerHeight="14" orient="auto"><path d="M 0 0 L 11.5 7 L 0 14 z" class="arrowMarkerPath" style="stroke-width: 0; stroke-dasharray: 1, 0;"></path></marker><marker id="d_mimari_flowchart-v2-pointStart-margin" class="marker flowchart-v2" viewBox="0 0 11.5 14" refX="1" refY="7" markerUnits="userSpaceOnUse" markerWidth="11.5" markerHeight="14" orient="auto"><polygon points="0,7 11.5,14 11.5,0" class="arrowMarkerPath" style="stroke-width: 0; stroke-dasharray: 1, 0;"></polygon></marker><marker id="d_mimari_flowchart-v2-circleEnd" class="marker flowchart-v2" viewBox="0 0 10 10" refX="11" refY="5" markerUnits="userSpaceOnUse" markerWidth="11" markerHeight="11" orient="auto"><circle cx="5" cy="5" r="5" class="arrowMarkerPath" style="stroke-width: 1; stroke-dasharray: 1, 0;"></circle></marker><marker id="d_mimari_flowchart-v2-circleStart" class="marker flowchart-v2" viewBox="0 0 10 10" refX="-1" refY="5" markerUnits="userSpaceOnUse" markerWidth="11" markerHeight="11" orient="auto"><circle cx="5" cy="5" r="5" class="arrowMarkerPath" style="stroke-width: 1; stroke-dasharray: 1, 0;"></circle></marker><marker id="d_mimari_flowchart-v2-circleEnd-margin" class="marker flowchart-v2" viewBox="0 0 10 10" refY="5" refX="12.25" markerUnits="userSpaceOnUse" markerWidth="14" markerHeight="14" orient="auto"><circle cx="5" cy="5" r="5" class="arrowMarkerPath" style="stroke-width: 0; stroke-dasharray: 1, 0;"></circle></marker><marker id="d_mimari_flowchart-v2-circleStart-margin" class="marker flowchart-v2" viewBox="0 0 10 10" refX="-2" refY="5" markerUnits="userSpaceOnUse" markerWidth="14" markerHeight="14" orient="auto"><circle cx="5" cy="5" r="5" class="arrowMarkerPath" style="stroke-width: 0; stroke-dasharray: 1, 0;"></circle></marker><marker id="d_mimari_flowchart-v2-crossEnd" class="marker cross flowchart-v2" viewBox="0 0 11 11" refX="12" refY="5.2" markerUnits="userSpaceOnUse" markerWidth="11" markerHeight="11" orient="auto"><path d="M 1,1 l 9,9 M 10,1 l -9,9" class="arrowMarkerPath" style="stroke-width: 2; stroke-dasharray: 1, 0;"></path></marker><marker id="d_mimari_flowchart-v2-crossStart" class="marker cross flowchart-v2" viewBox="0 0 11 11" refX="-1" refY="5.2" markerUnits="userSpaceOnUse" markerWidth="11" markerHeight="11" orient="auto"><path d="M 1,1 l 9,9 M 10,1 l -9,9" class="arrowMarkerPath" style="stroke-width: 2; stroke-dasharray: 1, 0;"></path></marker><marker id="d_mimari_flowchart-v2-crossEnd-margin" class="marker cross flowchart-v2" viewBox="0 0 15 15" refX="17.7" refY="7.5" markerUnits="userSpaceOnUse" markerWidth="12" markerHeight="12" orient="auto"><path d="M 1,1 L 14,14 M 1,14 L 14,1" class="arrowMarkerPath" style="stroke-width: 2.5;"></path></marker><marker id="d_mimari_flowchart-v2-crossStart-margin" class="marker cross flowchart-v2" viewBox="0 0 15 15" refX="-3.5" refY="7.5" markerUnits="userSpaceOnUse" markerWidth="12" markerHeight="12" orient="auto"><path d="M 1,1 L 14,14 M 1,14 L 14,1" class="arrowMarkerPath" style="stroke-width: 2.5; stroke-dasharray: 1, 0;"></path></marker><g class="root"><g class="clusters"></g><g class="edgePaths"><path d="M111.124,87.359L125.347,84.966C139.571,82.573,168.017,77.786,196.138,77.109C224.258,76.431,252.052,79.862,265.949,81.577L279.846,83.293" id="d_mimari-L_Client_Auth_0" class=" edge-thickness-normal edge-pattern-solid edge-thickness-normal edge-pattern-solid flowchart-link" style=";" data-edge="true" data-et="edge" data-id="L_Client_Auth_0" data-points="W3sieCI6MTExLjEyMzY3NDcxOTIwMDcxLCJ5Ijo4Ny4zNTkxNDYwNTIxMjMwN30seyJ4IjoxOTYuNDY0MzQwMjA5OTYwOTQsInkiOjczfSx7IngiOjI4My44MTU5MDI3MDk5NjA5NCwieSI6ODMuNzgyNTM2MjczMTc3NTd9XQ==" data-look="classic" marker-end="url(#d_mimari_flowchart-v2-pointEnd)"></path><path d="M283.816,116.415L269.257,119.846C254.699,123.277,225.582,130.138,196.711,129.213C167.841,128.288,139.217,119.576,124.906,115.22L110.594,110.864" id="d_mimari-L_Auth_Client_0" class=" edge-thickness-normal edge-pattern-dotted edge-thickness-normal edge-pattern-solid flowchart-link" style=";" data-edge="true" data-et="edge" data-id="L_Auth_Client_0" data-points="W3sieCI6MjgzLjgxNTkwMjcwOTk2MDk0LCJ5IjoxMTYuNDE1MTU4MDIzOTMzNzF9LHsieCI6MTk2LjQ2NDM0MDIwOTk2MDk0LCJ5IjoxMzd9LHsieCI6MTA2Ljc2NzI4NDQ0NzE0MDUxLCJ5IjoxMDkuNjk4ODc1MjQzODQ4NDJ9XQ==" data-look="classic" marker-end="url(#d_mimari_flowchart-v2-pointEnd)"></path><path d="M75.597,115L95.742,141.396C115.886,167.792,156.175,220.583,189.664,246.979C223.152,273.375,249.839,273.375,263.183,273.375L276.527,273.375" id="d_mimari-L_Client_Order_0" class=" edge-thickness-normal edge-pattern-solid edge-thickness-normal edge-pattern-solid flowchart-link" style=";" data-edge="true" data-et="edge" data-id="L_Client_Order_0" data-points="W3sieCI6NzUuNTk3Mjk4ODA0OTA4MDksInkiOjExNX0seyJ4IjoxOTYuNDY0MzQwMjA5OTYwOTQsInkiOjI3My4zNzQ2NzM4NDMzODM4fSx7IngiOjI4MC41MjY4NDAyMDk5NjA5NCwieSI6MjczLjM3NDY3Mzg0MzM4Mzh9XQ==" data-look="classic" marker-end="url(#d_mimari_flowchart-v2-pointEnd)"></path><path d="M95.849,76.155L112.618,66.796C129.387,57.436,162.926,38.718,209.399,29.359C255.873,20,315.282,20,376.803,20C438.324,20,501.957,20,561.394,20C620.832,20,676.074,20,729.553,20C783.032,20,834.748,20,885.046,41.126C935.344,62.253,984.223,104.506,1008.663,125.632L1033.103,146.759" id="d_mimari-L_Client_Ship_0" class=" edge-thickness-normal edge-pattern-solid edge-thickness-normal edge-pattern-solid flowchart-link" style=";" data-edge="true" data-et="edge" data-id="L_Client_Ship_0" data-points="W3sieCI6OTUuODQ4NTIxNjA3Njg2MDgsInkiOjc2LjE1NDYwMTg2ODQxMDIzfSx7IngiOjE5Ni40NjQzNDAyMDk5NjA5NCwieSI6MjB9LHsieCI6Mzc0LjY5MDkwMjcwOTk2MDk0LCJ5IjoyMH0seyJ4Ijo1NjUuNTg5MzQwMjA5OTYwOSwieSI6MjB9LHsieCI6NzMxLjMxNTkwMjcwOTk2MDksInkiOjIwfSx7IngiOjg4Ni40NjQzNDAyMDk5NjA5LCJ5IjoyMH0seyJ4IjoxMDM2LjEyOTEzMzEwNTA5OTgsInkiOjE0OS4zNzQ2NzM4NDMzODM4fV0=" data-look="classic" marker-end="url(#d_mimari_flowchart-v2-pointEnd)"></path><path d="M468.855,299.545L484.977,304.026C501.1,308.507,533.345,317.469,565.006,322.029C596.667,326.59,627.746,326.75,643.285,326.83L658.824,326.91" id="d_mimari-L_Order_Rabbit_0" class=" edge-thickness-thick edge-pattern-solid edge-thickness-normal edge-pattern-solid flowchart-link" style=";" data-edge="true" data-et="edge" data-id="L_Order_Rabbit_0" data-points="W3sieCI6NDY4Ljg1NDk2NTIwOTk2MDk0LCJ5IjoyOTkuNTQ1MzA4NTU0MjQzMjZ9LHsieCI6NTY1LjU4OTM0MDIwOTk2MDksInkiOjMyNi40MzAyOTk3NTg5MTExM30seyJ4Ijo2NjIuODIzNzE1MjA5OTYwOSwieSI6MzI2LjkzMDI5OTc1ODkxMTEzfV0=" data-look="classic" marker-end="url(#d_mimari_flowchart-v2-pointEnd)"></path><path d="M754,307.43L776.078,287.868C798.155,268.305,842.31,229.181,878.08,209.5C913.85,189.819,941.235,189.583,954.928,189.465L968.621,189.347" id="d_mimari-L_Rabbit_Ship_0" class=" edge-thickness-thick edge-pattern-solid edge-thickness-normal edge-pattern-solid flowchart-link" style=";" data-edge="true" data-et="edge" data-id="L_Rabbit_Ship_0" data-points="W3sieCI6NzU0LjAwMDMzMzYzMDk0MzEsInkiOjMwNy40MzAyOTk3NTg5MTExM30seyJ4Ijo4ODYuNDY0MzQwMjA5OTYwOSwieSI6MTkwLjA1NTYyNTkxNTUyNzM0fSx7IngiOjk3Mi42MjA1OTAyMDk5NjA5LCJ5IjoxODkuMzEyMTAxOTUyMjgzMzR9XQ==" data-look="classic" marker-end="url(#d_mimari_flowchart-v2-pointEnd)"></path><path d="M1033.784,227.375L1009.231,247.551C984.678,267.727,935.571,308.078,896.641,326.284C857.711,344.49,828.957,340.549,814.58,338.579L800.203,336.609" id="d_mimari-L_Ship_Rabbit_0" class=" edge-thickness-thick edge-pattern-solid edge-thickness-normal edge-pattern-solid flowchart-link" style=";" data-edge="true" data-et="edge" data-id="L_Ship_Rabbit_0" data-points="W3sieCI6MTAzMy43ODQxNjEwNTY1MTY1LCJ5IjoyMjcuMzc0NjczODQzMzgzOH0seyJ4Ijo4ODYuNDY0MzQwMjA5OTYwOSwieSI6MzQ4LjQzMDI5OTc1ODkxMTEzfSx7IngiOjc5Ni4yNDA0MDMxODMxMTMxLCJ5IjozMzYuMDY1NjczODEyNjA5N31d" data-look="classic" marker-end="url(#d_mimari_flowchart-v2-pointEnd)"></path><path d="M465.566,95L482.236,95C498.907,95,532.248,95,568.332,95C604.415,95,643.24,95,662.653,95L682.066,95" id="d_mimari-L_Auth_AuthDB_0" class=" edge-thickness-normal edge-pattern-solid edge-thickness-normal edge-pattern-solid flowchart-link" style=";" data-edge="true" data-et="edge" data-id="L_Auth_AuthDB_0" data-points="W3sieCI6NDY1LjU2NTkwMjcwOTk2MDk0LCJ5Ijo5NX0seyJ4Ijo1NjUuNTg5MzQwMjA5OTYwOSwieSI6OTV9LHsieCI6NjgyLjA2NTkwMjcwOTk2MDksInkiOjk1fV0=" data-look="classic"></path><path d="M468.855,247.204L484.977,242.723C501.1,238.242,533.345,229.281,568.346,224.8C603.347,220.319,641.105,220.319,659.984,220.319L678.863,220.319" id="d_mimari-L_Order_OrderDB_0" class=" edge-thickness-normal edge-pattern-solid edge-thickness-normal edge-pattern-solid flowchart-link" style=";" data-edge="true" data-et="edge" data-id="L_Order_OrderDB_0" data-points="W3sieCI6NDY4Ljg1NDk2NTIwOTk2MDk0LCJ5IjoyNDcuMjA0MDM5MTMyNTI0MzF9LHsieCI6NTY1LjU4OTM0MDIwOTk2MDksInkiOjIyMC4zMTkwNDc5Mjc4NTY0NX0seyJ4Ijo2NzguODYyNzc3NzA5OTYwOSwieSI6MjIwLjMxOTA0NzkyNzg1NjQ1fV0=" data-look="classic"></path><path d="M1189.871,188.375L1194.037,188.375C1198.204,188.375,1206.537,188.375,1214.871,188.375C1223.204,188.375,1231.537,188.375,1235.704,188.375L1239.871,188.375" id="d_mimari-L_Ship_ShipDB_0" class=" edge-thickness-normal edge-pattern-solid edge-thickness-normal edge-pattern-solid flowchart-link" style=";" data-edge="true" data-et="edge" data-id="L_Ship_ShipDB_0" data-points="W3sieCI6MTE4OS44NzA1OTAyMDk5NjEsInkiOjE4OC4zNzQ2NzM4NDMzODM4fSx7IngiOjEyMTQuODcwNTkwMjA5OTYxLCJ5IjoxODguMzc0NjczODQzMzgzOH0seyJ4IjoxMjM5Ljg3MDU5MDIwOTk2MSwieSI6MTg4LjM3NDY3Mzg0MzM4Mzh9XQ==" data-look="classic"></path></g><g class="edgeLabels"><g class="edgeLabel" transform="translate(196.46434020996094, 73)"><g class="label" data-id="L_Client_Auth_0" transform="translate(-39.7890625, -12)"><foreignObject width="79.578125" height="24"><div xmlns="http://www.w3.org/1999/xhtml" class="labelBkg" style="display: table-cell; white-space: nowrap; line-height: 1.5; max-width: 200px; text-align: center;"><span class="edgeLabel "><p>① giriş yap</p></span></div></foreignObject></g></g><g class="edgeLabel" transform="translate(194.54353, 136.41536)"><g class="label" data-id="L_Auth_Client_0" transform="translate(-14.671875, -12)"><foreignObject width="29.34375" height="24"><div xmlns="http://www.w3.org/1999/xhtml" class="labelBkg" style="display: table-cell; white-space: nowrap; line-height: 1.5; max-width: 200px; text-align: center;"><span class="edgeLabel "><p>JWT</p></span></div></foreignObject></g></g><g class="edgeLabel" transform="translate(196.46434020996094, 273.3746738433838)"><g class="label" data-id="L_Client_Order_0" transform="translate(-59.0625, -12)"><foreignObject width="118.125" height="24"><div xmlns="http://www.w3.org/1999/xhtml" class="labelBkg" style="display: table-cell; white-space: nowrap; line-height: 1.5; max-width: 200px; text-align: center;"><span class="edgeLabel "><p>② sipariş oluştur</p></span></div></foreignObject></g></g><g class="edgeLabel" transform="translate(565.5893402099609, 20)"><g class="label" data-id="L_Client_Ship_0" transform="translate(-71.734375, -12)"><foreignObject width="143.46875" height="24"><div xmlns="http://www.w3.org/1999/xhtml" class="labelBkg" style="display: table-cell; white-space: nowrap; line-height: 1.5; max-width: 200px; text-align: center;"><span class="edgeLabel "><p>④ gönderiyi sorgula</p></span></div></foreignObject></g></g><g class="edgeLabel" transform="translate(564.06451, 326.00651)"><g class="label" data-id="L_Order_Rabbit_0" transform="translate(-58, -12)"><foreignObject width="116" height="24"><div xmlns="http://www.w3.org/1999/xhtml" class="labelBkg" style="display: table-cell; white-space: nowrap; line-height: 1.5; max-width: 200px; text-align: center;"><span class="edgeLabel "><p>③ OrderCreated</p></span></div></foreignObject></g></g><g class="edgeLabel" transform="translate(886.4643402099609, 190.05562591552734)"><g class="label" data-id="L_Rabbit_Ship_0" transform="translate(-47.90625, -12)"><foreignObject width="95.8125" height="24"><div xmlns="http://www.w3.org/1999/xhtml" class="labelBkg" style="display: table-cell; white-space: nowrap; line-height: 1.5; max-width: 200px; text-align: center;"><span class="edgeLabel "><p>order-created</p></span></div></foreignObject></g></g><g class="edgeLabel" transform="translate(924.94425, 316.81059)"><g class="label" data-id="L_Ship_Rabbit_0" transform="translate(-61.15625, -12)"><foreignObject width="122.3125" height="24"><div xmlns="http://www.w3.org/1999/xhtml" class="labelBkg" style="display: table-cell; white-space: nowrap; line-height: 1.5; max-width: 200px; text-align: center;"><span class="edgeLabel "><p>ShipmentCreated</p></span></div></foreignObject></g></g><g class="edgeLabel"><g class="label" data-id="L_Auth_AuthDB_0" transform="translate(0, 0)"><foreignObject width="0" height="0"><div xmlns="http://www.w3.org/1999/xhtml" class="labelBkg" style="display: table-cell; white-space: nowrap; line-height: 1.5; max-width: 200px; text-align: center;"><span class="edgeLabel "></span></div></foreignObject></g></g><g class="edgeLabel"><g class="label" data-id="L_Order_OrderDB_0" transform="translate(0, 0)"><foreignObject width="0" height="0"><div xmlns="http://www.w3.org/1999/xhtml" class="labelBkg" style="display: table-cell; white-space: nowrap; line-height: 1.5; max-width: 200px; text-align: center;"><span class="edgeLabel "></span></div></foreignObject></g></g><g class="edgeLabel"><g class="label" data-id="L_Ship_ShipDB_0" transform="translate(0, 0)"><foreignObject width="0" height="0"><div xmlns="http://www.w3.org/1999/xhtml" class="labelBkg" style="display: table-cell; white-space: nowrap; line-height: 1.5; max-width: 200px; text-align: center;"><span class="edgeLabel "></span></div></foreignObject></g></g></g><g class="nodes"><g class="node default  " id="d_mimari-flowchart-Client-0" data-look="classic" transform="translate(60.20092010498047, 95)"><g class="basic label-container outer-path"><path d="M-32.7109375 -19.5 C-9.29898916842858 -19.5, 14.11295916314284 -19.5, 32.7109375 -19.5 C32.7109375 -19.5, 32.7109375 -19.5, 32.7109375 -19.5 C33.00590394867121 -19.49054100010848, 33.300870397342415 -19.481082000216954, 33.9603067896239 -19.45993515863156 C34.31781581086603 -19.425446693319834, 34.67532483210815 -19.39095822800811, 35.204542152847864 -19.3399052695533 C35.63315229067312 -19.270610906390974, 36.06176242849836 -19.20131654322865, 36.43853075967676 -19.140403561325776 C36.70280589969564 -19.080084485172925, 36.967081039714515 -19.01976540902007, 37.65720188623539 -18.862249829261074 C37.95014763599683 -18.7753050684355, 38.243093385758264 -18.688360307609926, 38.855547751460605 -18.50658706670804 C39.14158365793843 -18.401323209037265, 39.42761956441626 -18.296059351366488, 40.0286440951478 -18.074876768247425 C40.463014864328215 -17.88259371388231, 40.897385633508634 -17.6903106595172, 41.17167041279238 -17.568892924097174 C41.42516942111551 -17.43664265382886, 41.67866842943865 -17.304392383560543, 42.27992976407678 -16.990714730406097 C42.49660580139959 -16.85936444325128, 42.713281838722395 -16.728014156096464, 43.3488680736057 -16.342718045390892 C43.58394528298823 -16.17873836045402, 43.81902249237076 -16.014758675517147, 44.37409284457871 -15.627565626425154 C44.72976759690486 -15.34392447634771, 45.08544234923101 -15.060283326270264, 45.351391208501866 -14.848196188198123 C45.65378841425179 -14.573567046927664, 45.956185620001726 -14.298937905657205, 46.27674723676799 -14.007812326905688 C46.532259938130125 -13.743974484766362, 46.78777263949226 -13.480136642627034, 47.14635844296865 -13.10986736009568 C47.403126512252584 -12.808252975397735, 47.65989458153651 -12.506638590699788, 47.95665140812658 -12.158051136245305 C48.15134858831675 -11.89717465206848, 48.346045768506926 -11.636298167891656, 48.704296464640635 -11.156274872382312 C48.957716146970526 -10.766954187610619, 49.21113582930042 -10.377633502838925, 49.38622137860425 -10.108655082055241 C49.521263901217694 -9.868873408616842, 49.65630642383114 -9.629091735178442, 49.999623974273504 -9.019496659696287 C50.180445361727564 -8.64401717969003, 50.361266749181624 -8.268537699683773, 50.54198364880834 -7.893275190886684 C50.695386970826135 -7.514366019651267, 50.84879029284393 -7.13545684841585, 51.011071729970325 -6.734618561215508 C51.156704928816765 -6.295994569789177, 51.3023381276632 -5.857370578362847, 51.40496063421488 -5.548287939305138 C51.51805408335157 -5.117013602736034, 51.63114753248826 -4.685739266166928, 51.72203178754556 -4.339158212148133 C51.81157473541462 -3.879374099749274, 51.901117683283665 -3.419589987350415, 51.960982276581774 -3.1121979531509023 C52.00817829408734 -2.746154961285566, 52.0553743115929 -2.3801119694202293, 52.12083020250937 -1.872449005199798 C52.14685884736782 -1.467031851585496, 52.172887492226266 -1.0616146979711942, 52.20091871591342 -0.6250057626472757 C52.20091871591342 -0.2869975703495426, 52.20091871591342 0.051010621948190504, 52.20091871591342 0.625005762647271 C52.174324115917614 1.0392381243566144, 52.14772951592181 1.453470486065958, 52.12083020250937 1.8724490051997846 C52.074429679834076 2.2323222962497407, 52.028029157158784 2.5921955872996967, 51.960982276581774 3.1121979531508885 C51.86708450479819 3.594343165958498, 51.77318673301461 4.076488378766107, 51.72203178754556 4.339158212148129 C51.606444188458845 4.779943823448104, 51.490856589372136 5.22072943474808, 51.40496063421489 5.548287939305125 C51.26526648507474 5.969024459275173, 51.12557233593459 6.389760979245219, 51.011071729970325 6.734618561215495 C50.905397331885055 6.995636367561603, 50.79972293379979 7.256654173907711, 50.54198364880834 7.893275190886679 C50.40935579843833 8.16867975996141, 50.27672794806831 8.44408432903614, 49.999623974273504 9.019496659696284 C49.86126658513241 9.265164214321155, 49.72290919599132 9.510831768946026, 49.38622137860425 10.108655082055236 C49.15397405177505 10.465449343204362, 48.92172672494585 10.822243604353487, 48.70429646464064 11.156274872382301 C48.54286507504395 11.372578227739737, 48.38143368544725 11.588881583097171, 47.95665140812658 12.158051136245302 C47.69332744722433 12.467366444278932, 47.43000348632207 12.776681752312562, 47.14635844296866 13.10986736009567 C46.79975341832014 13.467765504847023, 46.453148393671604 13.825663649598374, 46.27674723676799 14.007812326905684 C46.00446828833068 14.255088863770249, 45.73218933989337 14.502365400634813, 45.35139120850189 14.848196188198111 C45.001628229022224 15.127122856749367, 44.65186524954255 15.40604952530062, 44.37409284457871 15.627565626425152 C44.11852668742169 15.805837514377256, 43.86296053026467 15.98410940232936, 43.34886807360571 16.34271804539089 C42.97896718334137 16.56695413884805, 42.60906629307702 16.79119023230521, 42.27992976407678 16.990714730406093 C42.04202044953829 17.114831867412637, 41.8041111349998 17.238949004419176, 41.17167041279239 17.56889292409717 C40.79702471135866 17.73473746265201, 40.42237900992493 17.900582001206853, 40.028644095147804 18.07487676824742 C39.6281884396122 18.22224815125602, 39.2277327840766 18.369619534264626, 38.85554775146062 18.506587066708033 C38.55155897543944 18.59680933976147, 38.24757019941827 18.68703161281491, 37.65720188623541 18.86224982926107 C37.18873727291442 18.96917382023429, 36.720272659593434 19.07609781120751, 36.438530759676766 19.140403561325773 C36.17797134630759 19.182528786610874, 35.917411932938414 19.22465401189597, 35.20454215284788 19.3399052695533 C34.86842663300842 19.372329929514155, 34.532311113168966 19.404754589475015, 33.9603067896239 19.45993515863156 C33.4915749961597 19.47496647491687, 33.022843202695505 19.489997791202175, 32.71093750000001 19.5 C32.71093750000001 19.5, 32.7109375 19.5, 32.7109375 19.5 C10.497946032081718 19.5, -11.715045435836565 19.5, -32.71093749999999 19.5 C-33.0431006938511 19.48934817288963, -33.37526388770222 19.47869634577926, -33.96030678962389 19.45993515863156 C-34.391216446965906 19.41836582223246, -34.82212610430791 19.37679648583336, -35.20454215284787 19.3399052695533 C-35.482953928137825 19.294893812839984, -35.76136570342778 19.249882356126665, -36.43853075967676 19.140403561325773 C-36.82956384382069 19.051152811599266, -37.220596927964614 18.96190206187276, -37.657201886235384 18.862249829261074 C-37.95505761879604 18.773847811313715, -38.2529133513567 18.68544579336636, -38.85554775146059 18.506587066708043 C-39.21522913518314 18.37422099263988, -39.57491051890569 18.241854918571722, -40.0286440951478 18.074876768247425 C-40.425866262351235 17.899038298003394, -40.82308842955467 17.723199827759366, -41.17167041279238 17.568892924097174 C-41.44192331330711 17.427902159003885, -41.712176213821834 17.286911393910597, -42.27992976407678 16.990714730406097 C-42.549063023493225 16.82756456694526, -42.81819628290967 16.664414403484425, -43.348868073605686 16.3427180453909 C-43.70939140738141 16.09123257455254, -44.06991474115713 15.83974710371418, -44.37409284457871 15.627565626425156 C-44.6562449994975 15.402556791261595, -44.938397154416286 15.177547956098035, -45.351391208501866 14.848196188198125 C-45.653060856532726 14.574227795598002, -45.95473050456358 14.30025940299788, -46.276747236767974 14.007812326905697 C-46.534296099755714 13.74187198071596, -46.791844962743454 13.475931634526223, -47.146358442968655 13.109867360095677 C-47.35176407370118 12.868586218325756, -47.55716970443371 12.627305076555835, -47.956651408126575 12.158051136245307 C-48.11940262501566 11.939979332554815, -48.28215384190474 11.721907528864325, -48.704296464640635 11.156274872382316 C-48.89383847507153 10.865087445204104, -49.08338048550243 10.573900018025892, -49.38622137860425 10.108655082055249 C-49.612255212408826 9.707309121727617, -49.8382890462134 9.305963161399987, -49.999623974273504 9.019496659696289 C-50.207253693526205 8.588349105103743, -50.414883412778906 8.157201550511198, -50.54198364880834 7.893275190886686 C-50.64237742316416 7.645300627246227, -50.74277119751998 7.397326063605769, -51.011071729970325 6.73461856121551 C-51.168157380568516 6.261501609813292, -51.3252430311667 5.788384658411074, -51.40496063421488 5.5482879393051325 C-51.506845382340224 5.159757237574047, -51.60873013046557 4.7712265358429615, -51.72203178754556 4.339158212148136 C-51.796949988697236 3.9544690832017038, -51.87186818984891 3.5697799542552713, -51.960982276581774 3.112197953150904 C-52.003065093829505 2.785811932769715, -52.04514791107724 2.459425912388526, -52.12083020250937 1.872449005199809 C-52.149364406285024 1.4280057489992712, -52.17789861006067 0.9835624927987335, -52.20091871591342 0.6250057626472781 C-52.20091871591342 0.3495343744385472, -52.20091871591342 0.07406298622981622, -52.20091871591342 -0.6250057626472687 C-52.172373314124094 -1.0696234369495572, -52.14382791233477 -1.5142411112518457, -52.12083020250937 -1.8724490051997822 C-52.0670619333434 -2.2894650831052754, -52.013293664177446 -2.7064811610107684, -51.960982276581774 -3.112197953150895 C-51.884960630395085 -3.502553039138931, -51.808938984208396 -3.892908125126967, -51.72203178754556 -4.339158212148126 C-51.65313156148015 -4.601904635682394, -51.58423133541475 -4.864651059216662, -51.40496063421489 -5.548287939305123 C-51.29147930423529 -5.890075624409158, -51.17799797425569 -6.231863309513193, -51.01107172997033 -6.734618561215485 C-50.84295429708645 -7.149871870768117, -50.67483686420257 -7.5651251803207495, -50.54198364880834 -7.893275190886676 C-50.36541572467343 -8.259922263301181, -50.18884780053852 -8.626569335715686, -49.999623974273504 -9.019496659696282 C-49.86881039349457 -9.251769418680711, -49.73799681271564 -9.48404217766514, -49.38622137860425 -10.108655082055243 C-49.20884220405681 -10.381157127137726, -49.03146302950937 -10.653659172220207, -48.70429646464064 -11.156274872382308 C-48.44192277408233 -11.507831714995515, -48.179549083524016 -11.859388557608723, -47.95665140812659 -12.158051136245302 C-47.6496413621417 -12.51868260562565, -47.34263131615682 -12.879314075005995, -47.14635844296866 -13.10986736009567 C-46.947305435974535 -13.315405932372911, -46.7482524289804 -13.520944504650155, -46.276747236767996 -14.007812326905677 C-46.08667268564206 -14.180433005141218, -45.89659813451612 -14.35305368337676, -45.35139120850189 -14.848196188198107 C-45.03827261847735 -15.097899931307056, -44.72515402845281 -15.347603674416005, -44.37409284457872 -15.627565626425149 C-44.00286625238617 -15.886517226998501, -43.63163966019362 -16.145468827571854, -43.348868073605715 -16.342718045390885 C-43.09153196864371 -16.498716704493667, -42.8341958636817 -16.65471536359645, -42.27992976407679 -16.99071473040609 C-42.039771944863205 -17.116004910861392, -41.799614125649626 -17.241295091316694, -41.17167041279239 -17.56889292409717 C-40.9137104323828 -17.683084155313555, -40.65575045197322 -17.79727538652994, -40.028644095147804 -18.07487676824742 C-39.63735636526618 -18.218874269867985, -39.24606863538455 -18.362871771488546, -38.85554775146062 -18.506587066708033 C-38.519874943204734 -18.606212994215856, -38.18420213494885 -18.705838921723675, -37.65720188623541 -18.862249829261067 C-37.17579237420921 -18.972128408890395, -36.694382862183005 -19.082006988519723, -36.438530759676766 -19.140403561325773 C-36.13155997416973 -19.190032217332554, -35.8245891886627 -19.239660873339336, -35.20454215284788 -19.3399052695533 C-34.76635169639127 -19.38217697588654, -34.32816123993466 -19.424448682219783, -33.9603067896239 -19.45993515863156 C-33.600660628468226 -19.471468311011037, -33.24101446731256 -19.48300146339051, -32.71093750000001 -19.5 C-32.71093750000001 -19.5, -32.7109375 -19.5, -32.7109375 -19.5" stroke="none" stroke-width="0" fill="#1f2020" style=""></path><path d="M-32.7109375 -19.5 C-14.398366872164313 -19.5, 3.914203755671373 -19.5, 32.7109375 -19.5 M-32.7109375 -19.5 C-10.604125625384135 -19.5, 11.50268624923173 -19.5, 32.7109375 -19.5 M32.7109375 -19.5 C32.7109375 -19.5, 32.7109375 -19.5, 32.7109375 -19.5 M32.7109375 -19.5 C32.7109375 -19.5, 32.7109375 -19.5, 32.7109375 -19.5 M32.7109375 -19.5 C33.027834099757456 -19.48983774284759, 33.34473069951491 -19.479675485695182, 33.9603067896239 -19.45993515863156 M32.7109375 -19.5 C33.07894125302451 -19.488198835916357, 33.44694500604902 -19.47639767183271, 33.9603067896239 -19.45993515863156 M33.9603067896239 -19.45993515863156 C34.29238590514102 -19.42789988574119, 34.62446502065813 -19.395864612850822, 35.204542152847864 -19.3399052695533 M33.9603067896239 -19.45993515863156 C34.361692637862504 -19.42121394858909, 34.76307848610111 -19.38249273854662, 35.204542152847864 -19.3399052695533 M35.204542152847864 -19.3399052695533 C35.462401377648604 -19.29821658981567, 35.72026060244934 -19.25652791007804, 36.43853075967676 -19.140403561325776 M35.204542152847864 -19.3399052695533 C35.53277189555806 -19.28683963021159, 35.86100163826824 -19.233773990869874, 36.43853075967676 -19.140403561325776 M36.43853075967676 -19.140403561325776 C36.771202643765385 -19.064473374669472, 37.103874527854 -18.988543188013168, 37.65720188623539 -18.862249829261074 M36.43853075967676 -19.140403561325776 C36.793200747942926 -19.059452450941993, 37.14787073620909 -18.978501340558207, 37.65720188623539 -18.862249829261074 M37.65720188623539 -18.862249829261074 C38.12328430135351 -18.723919014970537, 38.58936671647163 -18.585588200680004, 38.855547751460605 -18.50658706670804 M37.65720188623539 -18.862249829261074 C37.91729364048601 -18.78505596184897, 38.17738539473663 -18.707862094436862, 38.855547751460605 -18.50658706670804 M38.855547751460605 -18.50658706670804 C39.2847830982222 -18.348624491291723, 39.7140184449838 -18.190661915875403, 40.0286440951478 -18.074876768247425 M38.855547751460605 -18.50658706670804 C39.247872567823194 -18.36220790767576, 39.64019738418578 -18.21782874864348, 40.0286440951478 -18.074876768247425 M40.0286440951478 -18.074876768247425 C40.40353011532028 -17.90892584771574, 40.77841613549276 -17.742974927184054, 41.17167041279238 -17.568892924097174 M40.0286440951478 -18.074876768247425 C40.27905661934242 -17.96402657201007, 40.529469143537035 -17.85317637577272, 41.17167041279238 -17.568892924097174 M41.17167041279238 -17.568892924097174 C41.508000613664905 -17.393429673731752, 41.84433081453743 -17.21796642336633, 42.27992976407678 -16.990714730406097 M41.17167041279238 -17.568892924097174 C41.512761391529274 -17.390945978969338, 41.85385237026616 -17.212999033841502, 42.27992976407678 -16.990714730406097 M42.27992976407678 -16.990714730406097 C42.687400093048645 -16.743703822421907, 43.094870422020506 -16.49669291443772, 43.3488680736057 -16.342718045390892 M42.27992976407678 -16.990714730406097 C42.51948937045371 -16.84549228921189, 42.75904897683064 -16.700269848017687, 43.3488680736057 -16.342718045390892 M43.3488680736057 -16.342718045390892 C43.67435413779873 -16.115673057074464, 43.99984020199176 -15.888628068758033, 44.37409284457871 -15.627565626425154 M43.3488680736057 -16.342718045390892 C43.72559841210107 -16.079927269650028, 44.10232875059645 -15.817136493909164, 44.37409284457871 -15.627565626425154 M44.37409284457871 -15.627565626425154 C44.669741827121044 -15.391793430397485, 44.965390809663376 -15.156021234369813, 45.351391208501866 -14.848196188198123 M44.37409284457871 -15.627565626425154 C44.57437259571935 -15.467847854558501, 44.774652346859995 -15.30813008269185, 45.351391208501866 -14.848196188198123 M45.351391208501866 -14.848196188198123 C45.63464460063747 -14.590952951934641, 45.91789799277307 -14.33370971567116, 46.27674723676799 -14.007812326905688 M45.351391208501866 -14.848196188198123 C45.565181685700615 -14.654037333392273, 45.77897216289937 -14.459878478586424, 46.27674723676799 -14.007812326905688 M46.27674723676799 -14.007812326905688 C46.49447208977141 -13.782993540636777, 46.712196942774845 -13.558174754367865, 47.14635844296865 -13.10986736009568 M46.27674723676799 -14.007812326905688 C46.5742555714125 -13.700610545496696, 46.871763906057005 -13.393408764087706, 47.14635844296865 -13.10986736009568 M47.14635844296865 -13.10986736009568 C47.44864110404217 -12.75478894602805, 47.75092376511568 -12.399710531960418, 47.95665140812658 -12.158051136245305 M47.14635844296865 -13.10986736009568 C47.447350971858 -12.756304408702173, 47.748343500747346 -12.402741457308666, 47.95665140812658 -12.158051136245305 M47.95665140812658 -12.158051136245305 C48.13469245623421 -11.919492351654238, 48.31273350434184 -11.680933567063173, 48.704296464640635 -11.156274872382312 M47.95665140812658 -12.158051136245305 C48.214967923198984 -11.811930539166935, 48.47328443827138 -11.465809942088566, 48.704296464640635 -11.156274872382312 M48.704296464640635 -11.156274872382312 C48.89964107786795 -10.856173089091786, 49.09498569109526 -10.55607130580126, 49.38622137860425 -10.108655082055241 M48.704296464640635 -11.156274872382312 C48.919506784990304 -10.825654028262559, 49.134717105339966 -10.495033184142805, 49.38622137860425 -10.108655082055241 M49.38622137860425 -10.108655082055241 C49.57923503756528 -9.765939785817592, 49.77224869652632 -9.423224489579942, 49.999623974273504 -9.019496659696287 M49.38622137860425 -10.108655082055241 C49.53084938102167 -9.851853418589794, 49.675477383439095 -9.595051755124349, 49.999623974273504 -9.019496659696287 M49.999623974273504 -9.019496659696287 C50.145218626157806 -8.717166249832026, 50.290813278042116 -8.414835839967765, 50.54198364880834 -7.893275190886684 M49.999623974273504 -9.019496659696287 C50.18750632105407 -8.629354946568204, 50.37538866783465 -8.239213233440124, 50.54198364880834 -7.893275190886684 M50.54198364880834 -7.893275190886684 C50.691098255627885 -7.524959229107604, 50.84021286244744 -7.156643267328524, 51.011071729970325 -6.734618561215508 M50.54198364880834 -7.893275190886684 C50.675488273170934 -7.56351618757476, 50.80899289753353 -7.233757184262837, 51.011071729970325 -6.734618561215508 M51.011071729970325 -6.734618561215508 C51.165925134855186 -6.26822477824177, 51.320778539740054 -5.801830995268032, 51.40496063421488 -5.548287939305138 M51.011071729970325 -6.734618561215508 C51.123196159197505 -6.396917644984975, 51.235320588424685 -6.059216728754441, 51.40496063421488 -5.548287939305138 M51.40496063421488 -5.548287939305138 C51.478717006432284 -5.267022925826266, 51.55247337864968 -4.985757912347395, 51.72203178754556 -4.339158212148133 M51.40496063421488 -5.548287939305138 C51.49651356359402 -5.199156940291888, 51.58806649297316 -4.850025941278639, 51.72203178754556 -4.339158212148133 M51.72203178754556 -4.339158212148133 C51.773578086812826 -4.074478859724916, 51.8251243860801 -3.809799507301699, 51.960982276581774 -3.1121979531509023 M51.72203178754556 -4.339158212148133 C51.78391057410138 -4.021423721270196, 51.845789360657186 -3.7036892303922593, 51.960982276581774 -3.1121979531509023 M51.960982276581774 -3.1121979531509023 C52.00901912642593 -2.7396336317085415, 52.05705597627009 -2.3670693102661806, 52.12083020250937 -1.872449005199798 M51.960982276581774 -3.1121979531509023 C52.01021186767864 -2.7303829660859384, 52.05944145877551 -2.3485679790209746, 52.12083020250937 -1.872449005199798 M52.12083020250937 -1.872449005199798 C52.14590332154378 -1.4819149375814187, 52.170976440578194 -1.0913808699630394, 52.20091871591342 -0.6250057626472757 M52.12083020250937 -1.872449005199798 C52.13949044193611 -1.5818007138541579, 52.15815068136285 -1.2911524225085178, 52.20091871591342 -0.6250057626472757 M52.20091871591342 -0.6250057626472757 C52.20091871591342 -0.2850823791605238, 52.20091871591342 0.05484100432622807, 52.20091871591342 0.625005762647271 M52.20091871591342 -0.6250057626472757 C52.20091871591342 -0.361033226178553, 52.20091871591342 -0.09706068970983028, 52.20091871591342 0.625005762647271 M52.20091871591342 0.625005762647271 C52.17860146563523 0.9726149498901945, 52.15628421535705 1.3202241371331178, 52.12083020250937 1.8724490051997846 M52.20091871591342 0.625005762647271 C52.17942394185491 0.9598042188778821, 52.1579291677964 1.2946026751084934, 52.12083020250937 1.8724490051997846 M52.12083020250937 1.8724490051997846 C52.086734333805346 2.136889829877337, 52.052638465101325 2.4013306545548896, 51.960982276581774 3.1121979531508885 M52.12083020250937 1.8724490051997846 C52.07750790951978 2.208448154672618, 52.034185616530195 2.544447304145451, 51.960982276581774 3.1121979531508885 M51.960982276581774 3.1121979531508885 C51.87418284387256 3.5578946950460963, 51.787383411163354 4.003591436941304, 51.72203178754556 4.339158212148129 M51.960982276581774 3.1121979531508885 C51.910271895735626 3.3725850411530875, 51.85956151488947 3.6329721291552866, 51.72203178754556 4.339158212148129 M51.72203178754556 4.339158212148129 C51.65758774050771 4.584911293730133, 51.593143693469855 4.830664375312136, 51.40496063421489 5.548287939305125 M51.72203178754556 4.339158212148129 C51.62088908322914 4.7248591792320065, 51.51974637891271 5.110560146315885, 51.40496063421489 5.548287939305125 M51.40496063421489 5.548287939305125 C51.25862515709287 5.989027081004652, 51.11228967997085 6.429766222704178, 51.011071729970325 6.734618561215495 M51.40496063421489 5.548287939305125 C51.3214067025856 5.799939068861421, 51.2378527709563 6.051590198417716, 51.011071729970325 6.734618561215495 M51.011071729970325 6.734618561215495 C50.867133750595144 7.090148153123716, 50.723195771219956 7.445677745031936, 50.54198364880834 7.893275190886679 M51.011071729970325 6.734618561215495 C50.84201110200706 7.152201580849631, 50.67295047404381 7.569784600483769, 50.54198364880834 7.893275190886679 M50.54198364880834 7.893275190886679 C50.332187523270754 8.328921334483454, 50.12239139773317 8.76456747808023, 49.999623974273504 9.019496659696284 M50.54198364880834 7.893275190886679 C50.33474267728107 8.323615502509492, 50.12750170575381 8.753955814132304, 49.999623974273504 9.019496659696284 M49.999623974273504 9.019496659696284 C49.779213461860515 9.410857843470113, 49.558802949447525 9.802219027243943, 49.38622137860425 10.108655082055236 M49.999623974273504 9.019496659696284 C49.7652246550516 9.435696386479632, 49.5308253358297 9.85189611326298, 49.38622137860425 10.108655082055236 M49.38622137860425 10.108655082055236 C49.12689394637689 10.50705165712241, 48.86756651414954 10.905448232189585, 48.70429646464064 11.156274872382301 M49.38622137860425 10.108655082055236 C49.134476169220214 10.495403326723155, 48.88273095983618 10.882151571391072, 48.70429646464064 11.156274872382301 M48.70429646464064 11.156274872382301 C48.488234845458656 11.44577775846773, 48.272173226276664 11.735280644553157, 47.95665140812658 12.158051136245302 M48.70429646464064 11.156274872382301 C48.45237597696583 11.493825375437982, 48.20045548929103 11.831375878493661, 47.95665140812658 12.158051136245302 M47.95665140812658 12.158051136245302 C47.72518773638118 12.429941535733485, 47.49372406463577 12.70183193522167, 47.14635844296866 13.10986736009567 M47.95665140812658 12.158051136245302 C47.70822398098141 12.449868128091083, 47.459796553836235 12.741685119936864, 47.14635844296866 13.10986736009567 M47.14635844296866 13.10986736009567 C46.94162173490436 13.3212748203684, 46.73688502684006 13.532682280641131, 46.27674723676799 14.007812326905684 M47.14635844296866 13.10986736009567 C46.95737277796137 13.305010575227357, 46.76838711295407 13.500153790359043, 46.27674723676799 14.007812326905684 M46.27674723676799 14.007812326905684 C45.91185392163618 14.33919878116033, 45.54696060650437 14.670585235414976, 45.35139120850189 14.848196188198111 M46.27674723676799 14.007812326905684 C46.035523536154734 14.22688530937327, 45.79429983554149 14.445958291840853, 45.35139120850189 14.848196188198111 M45.35139120850189 14.848196188198111 C44.97307075098188 15.14989668554013, 44.59475029346188 15.451597182882146, 44.37409284457871 15.627565626425152 M45.35139120850189 14.848196188198111 C44.99440843270659 15.132880452184232, 44.6374256569113 15.41756471617035, 44.37409284457871 15.627565626425152 M44.37409284457871 15.627565626425152 C44.02559094204605 15.87066546722773, 43.67708903951338 16.113765308030306, 43.34886807360571 16.34271804539089 M44.37409284457871 15.627565626425152 C44.09859595986297 15.81974032713493, 43.823099075147226 16.011915027844708, 43.34886807360571 16.34271804539089 M43.34886807360571 16.34271804539089 C42.96139809152783 16.57760462555286, 42.57392810944996 16.812491205714824, 42.27992976407678 16.990714730406093 M43.34886807360571 16.34271804539089 C43.10163995055251 16.492589186459455, 42.85441182749932 16.642460327528017, 42.27992976407678 16.990714730406093 M42.27992976407678 16.990714730406093 C41.86838604603279 17.205416824503313, 41.456842327988795 17.420118918600533, 41.17167041279239 17.56889292409717 M42.27992976407678 16.990714730406093 C41.927938149357075 17.174348530343973, 41.57594653463737 17.357982330281857, 41.17167041279239 17.56889292409717 M41.17167041279239 17.56889292409717 C40.92983140164 17.675947880434954, 40.687992390487615 17.783002836772738, 40.028644095147804 18.07487676824742 M41.17167041279239 17.56889292409717 C40.731690606254325 17.763658932914332, 40.291710799716256 17.958424941731494, 40.028644095147804 18.07487676824742 M40.028644095147804 18.07487676824742 C39.7038300743396 18.194411330452734, 39.37901605353139 18.31394589265805, 38.85554775146062 18.506587066708033 M40.028644095147804 18.07487676824742 C39.67437254582822 18.20525197324733, 39.32010099650864 18.335627178247236, 38.85554775146062 18.506587066708033 M38.85554775146062 18.506587066708033 C38.44635212458291 18.628034180853664, 38.03715649770519 18.749481294999292, 37.65720188623541 18.86224982926107 M38.85554775146062 18.506587066708033 C38.44518476424797 18.628380647273474, 38.03482177703531 18.750174227838915, 37.65720188623541 18.86224982926107 M37.65720188623541 18.86224982926107 C37.263563191199474 18.952095292670478, 36.869924496163534 19.041940756079885, 36.438530759676766 19.140403561325773 M37.65720188623541 18.86224982926107 C37.385282296267974 18.924313701229984, 37.11336270630054 18.986377573198894, 36.438530759676766 19.140403561325773 M36.438530759676766 19.140403561325773 C35.96046049717256 19.217694253877195, 35.48239023466836 19.29498494642862, 35.20454215284788 19.3399052695533 M36.438530759676766 19.140403561325773 C35.982824297319844 19.214078648103243, 35.527117834962915 19.287753734880717, 35.20454215284788 19.3399052695533 M35.20454215284788 19.3399052695533 C34.78262821732807 19.380606799487147, 34.36071428180826 19.421308329421, 33.9603067896239 19.45993515863156 M35.20454215284788 19.3399052695533 C34.7916531561882 19.379736174489388, 34.378764159528515 19.41956707942548, 33.9603067896239 19.45993515863156 M33.9603067896239 19.45993515863156 C33.70524811270621 19.46811439395871, 33.450189435788516 19.476293629285866, 32.71093750000001 19.5 M33.9603067896239 19.45993515863156 C33.48580407636293 19.475151537082336, 33.01130136310197 19.490367915533113, 32.71093750000001 19.5 M32.71093750000001 19.5 C32.71093750000001 19.5, 32.71093750000001 19.5, 32.7109375 19.5 M32.71093750000001 19.5 C32.71093750000001 19.5, 32.7109375 19.5, 32.7109375 19.5 M32.7109375 19.5 C15.0199049349499 19.5, -2.6711276301002016 19.5, -32.71093749999999 19.5 M32.7109375 19.5 C14.825553221827604 19.5, -3.059831056344791 19.5, -32.71093749999999 19.5 M-32.71093749999999 19.5 C-33.07287534961457 19.488393357632148, -33.43481319922914 19.476786715264296, -33.96030678962389 19.45993515863156 M-32.71093749999999 19.5 C-33.143495413472316 19.486128709637846, -33.57605332694464 19.47225741927569, -33.96030678962389 19.45993515863156 M-33.96030678962389 19.45993515863156 C-34.37889249281288 19.41955469926788, -34.79747819600187 19.3791742399042, -35.20454215284787 19.3399052695533 M-33.96030678962389 19.45993515863156 C-34.40805769112981 19.416741167662526, -34.85580859263573 19.373547176693496, -35.20454215284787 19.3399052695533 M-35.20454215284787 19.3399052695533 C-35.69803425639035 19.26012129334097, -36.19152635993283 19.180337317128643, -36.43853075967676 19.140403561325773 M-35.20454215284787 19.3399052695533 C-35.633930705136194 19.27048505837728, -36.06331925742451 19.20106484720126, -36.43853075967676 19.140403561325773 M-36.43853075967676 19.140403561325773 C-36.78466345295783 19.06140103281128, -37.1307961462389 18.98239850429679, -37.657201886235384 18.862249829261074 M-36.43853075967676 19.140403561325773 C-36.74532633242998 19.07037947387306, -37.05212190518321 19.00035538642035, -37.657201886235384 18.862249829261074 M-37.657201886235384 18.862249829261074 C-37.972548832521085 18.76865651089338, -38.287895778806785 18.67506319252568, -38.85554775146059 18.506587066708043 M-37.657201886235384 18.862249829261074 C-37.99726192745695 18.761321794038096, -38.33732196867851 18.66039375881512, -38.85554775146059 18.506587066708043 M-38.85554775146059 18.506587066708043 C-39.204375884851224 18.378215089088375, -39.55320401824186 18.249843111468703, -40.0286440951478 18.074876768247425 M-38.85554775146059 18.506587066708043 C-39.128635756586114 18.406088156424005, -39.40172376171163 18.305589246139967, -40.0286440951478 18.074876768247425 M-40.0286440951478 18.074876768247425 C-40.37117585718427 17.923248118037584, -40.71370761922074 17.771619467827744, -41.17167041279238 17.568892924097174 M-40.0286440951478 18.074876768247425 C-40.382080628829655 17.918420899108728, -40.73551716251151 17.761965029970032, -41.17167041279238 17.568892924097174 M-41.17167041279238 17.568892924097174 C-41.49708685042719 17.39912337702227, -41.822503288062 17.229353829947367, -42.27992976407678 16.990714730406097 M-41.17167041279238 17.568892924097174 C-41.41003287213494 17.4445393817366, -41.64839533147751 17.320185839376027, -42.27992976407678 16.990714730406097 M-42.27992976407678 16.990714730406097 C-42.55020078032506 16.8268748520676, -42.820471796573344 16.663034973729104, -43.348868073605686 16.3427180453909 M-42.27992976407678 16.990714730406097 C-42.57261743960629 16.813285741476406, -42.865305115135804 16.635856752546715, -43.348868073605686 16.3427180453909 M-43.348868073605686 16.3427180453909 C-43.67960003838868 16.11201374391429, -44.010332003171676 15.881309442437676, -44.37409284457871 15.627565626425156 M-43.348868073605686 16.3427180453909 C-43.715917718652086 16.086680102329577, -44.08296736369848 15.830642159268255, -44.37409284457871 15.627565626425156 M-44.37409284457871 15.627565626425156 C-44.632725670861966 15.421312829972813, -44.89135849714523 15.21506003352047, -45.351391208501866 14.848196188198125 M-44.37409284457871 15.627565626425156 C-44.709009864782566 15.360478215328788, -45.043926884986426 15.093390804232422, -45.351391208501866 14.848196188198125 M-45.351391208501866 14.848196188198125 C-45.67732186507236 14.552194589553418, -46.00325252164285 14.256192990908708, -46.276747236767974 14.007812326905697 M-45.351391208501866 14.848196188198125 C-45.57519678381273 14.644941886271834, -45.799002359123584 14.441687584345543, -46.276747236767974 14.007812326905697 M-46.276747236767974 14.007812326905697 C-46.60934411784082 13.66437874048621, -46.94194099891367 13.320945154066726, -47.146358442968655 13.109867360095677 M-46.276747236767974 14.007812326905697 C-46.58660384452832 13.687859939692535, -46.89646045228866 13.367907552479371, -47.146358442968655 13.109867360095677 M-47.146358442968655 13.109867360095677 C-47.3412178994995 12.880974354637367, -47.53607735603034 12.652081349179054, -47.956651408126575 12.158051136245307 M-47.146358442968655 13.109867360095677 C-47.37522239244921 12.841030742308172, -47.604086341929765 12.572194124520667, -47.956651408126575 12.158051136245307 M-47.956651408126575 12.158051136245307 C-48.15279558324459 11.895235810689128, -48.3489397583626 11.63242048513295, -48.704296464640635 11.156274872382316 M-47.956651408126575 12.158051136245307 C-48.10954421413066 11.953188705021011, -48.26243702013473 11.748326273796716, -48.704296464640635 11.156274872382316 M-48.704296464640635 11.156274872382316 C-48.84993445217322 10.932535814256791, -48.99557243970582 10.708796756131267, -49.38622137860425 10.108655082055249 M-48.704296464640635 11.156274872382316 C-48.84342236391435 10.942540130562973, -48.98254826318806 10.72880538874363, -49.38622137860425 10.108655082055249 M-49.38622137860425 10.108655082055249 C-49.595967313024325 9.73622993641345, -49.80571324744441 9.363804790771649, -49.999623974273504 9.019496659696289 M-49.38622137860425 10.108655082055249 C-49.56223092182281 9.796132315171798, -49.738240465041365 9.483609548288348, -49.999623974273504 9.019496659696289 M-49.999623974273504 9.019496659696289 C-50.18125617392165 8.642333510820409, -50.3628883735698 8.265170361944529, -50.54198364880834 7.893275190886686 M-49.999623974273504 9.019496659696289 C-50.19410598004721 8.615650613458872, -50.38858798582093 8.211804567221456, -50.54198364880834 7.893275190886686 M-50.54198364880834 7.893275190886686 C-50.652211524124866 7.621010207743874, -50.7624393994414 7.348745224601061, -51.011071729970325 6.73461856121551 M-50.54198364880834 7.893275190886686 C-50.69673041234727 7.511047693120391, -50.851477175886195 7.128820195354097, -51.011071729970325 6.73461856121551 M-51.011071729970325 6.73461856121551 C-51.139843777381515 6.3467776714524895, -51.268615824792704 5.958936781689469, -51.40496063421488 5.5482879393051325 M-51.011071729970325 6.73461856121551 C-51.129912613261126 6.376688755466978, -51.24875349655193 6.018758949718446, -51.40496063421488 5.5482879393051325 M-51.40496063421488 5.5482879393051325 C-51.48415899334571 5.246270271153325, -51.56335735247653 4.944252603001516, -51.72203178754556 4.339158212148136 M-51.40496063421488 5.5482879393051325 C-51.48884267646732 5.228409357489513, -51.572724718719755 4.908530775673892, -51.72203178754556 4.339158212148136 M-51.72203178754556 4.339158212148136 C-51.78733299114327 4.0038503330881365, -51.852634194740986 3.668542454028138, -51.960982276581774 3.112197953150904 M-51.72203178754556 4.339158212148136 C-51.801969994875826 3.9286924124533176, -51.88190820220609 3.5182266127584993, -51.960982276581774 3.112197953150904 M-51.960982276581774 3.112197953150904 C-52.02000056986207 2.6544637249491476, -52.07901886314237 2.1967294967473907, -52.12083020250937 1.872449005199809 M-51.960982276581774 3.112197953150904 C-52.008007853481686 2.7474768649657184, -52.05503343038159 2.3827557767805327, -52.12083020250937 1.872449005199809 M-52.12083020250937 1.872449005199809 C-52.13689092759726 1.6222902479719707, -52.15295165268515 1.3721314907441324, -52.20091871591342 0.6250057626472781 M-52.12083020250937 1.872449005199809 C-52.145181914132706 1.4931514403184698, -52.169533625756046 1.1138538754371305, -52.20091871591342 0.6250057626472781 M-52.20091871591342 0.6250057626472781 C-52.20091871591342 0.25839727087120823, -52.20091871591342 -0.10821122090486168, -52.20091871591342 -0.6250057626472687 M-52.20091871591342 0.6250057626472781 C-52.20091871591342 0.29027555249032705, -52.20091871591342 -0.04445465766662404, -52.20091871591342 -0.6250057626472687 M-52.20091871591342 -0.6250057626472687 C-52.177724231888845 -0.9862785735804784, -52.154529747864274 -1.3475513845136882, -52.12083020250937 -1.8724490051997822 M-52.20091871591342 -0.6250057626472687 C-52.18427038395467 -0.8843169711964339, -52.16762205199592 -1.1436281797455992, -52.12083020250937 -1.8724490051997822 M-52.12083020250937 -1.8724490051997822 C-52.059088842749354 -2.351302799287941, -51.99734748298933 -2.8301565933761004, -51.960982276581774 -3.112197953150895 M-52.12083020250937 -1.8724490051997822 C-52.087121450156395 -2.13388743190335, -52.05341269780343 -2.395325858606918, -51.960982276581774 -3.112197953150895 M-51.960982276581774 -3.112197953150895 C-51.89685051978632 -3.441500970043968, -51.832718762990865 -3.7708039869370404, -51.72203178754556 -4.339158212148126 M-51.960982276581774 -3.112197953150895 C-51.87249070419724 -3.566583474645019, -51.78399913181271 -4.020968996139143, -51.72203178754556 -4.339158212148126 M-51.72203178754556 -4.339158212148126 C-51.613196063262706 -4.754195998539949, -51.50436033897985 -5.169233784931771, -51.40496063421489 -5.548287939305123 M-51.72203178754556 -4.339158212148126 C-51.62315798046604 -4.716206890721394, -51.52428417338652 -5.093255569294662, -51.40496063421489 -5.548287939305123 M-51.40496063421489 -5.548287939305123 C-51.2513651218358 -6.010893150469406, -51.09776960945672 -6.473498361633689, -51.01107172997033 -6.734618561215485 M-51.40496063421489 -5.548287939305123 C-51.28541702248833 -5.90833425113758, -51.16587341076177 -6.268380562970036, -51.01107172997033 -6.734618561215485 M-51.01107172997033 -6.734618561215485 C-50.86947138266738 -7.084374156710255, -50.72787103536442 -7.434129752205025, -50.54198364880834 -7.893275190886676 M-51.01107172997033 -6.734618561215485 C-50.91127876407687 -6.981109116338086, -50.8114857981834 -7.227599671460687, -50.54198364880834 -7.893275190886676 M-50.54198364880834 -7.893275190886676 C-50.36205299449474 -8.26690504446813, -50.18212234018114 -8.640534898049582, -49.999623974273504 -9.019496659696282 M-50.54198364880834 -7.893275190886676 C-50.427566334938305 -8.130865191276136, -50.31314902106828 -8.368455191665594, -49.999623974273504 -9.019496659696282 M-49.999623974273504 -9.019496659696282 C-49.76716770321686 -9.432246307707251, -49.534711432160215 -9.84499595571822, -49.38622137860425 -10.108655082055243 M-49.999623974273504 -9.019496659696282 C-49.76130114462802 -9.442662976535207, -49.522978314982545 -9.865829293374132, -49.38622137860425 -10.108655082055243 M-49.38622137860425 -10.108655082055243 C-49.1297304510186 -10.50269402428461, -48.87323952343295 -10.896732966513975, -48.70429646464064 -11.156274872382308 M-49.38622137860425 -10.108655082055243 C-49.21310523213977 -10.37460797121897, -49.03998908567529 -10.640560860382696, -48.70429646464064 -11.156274872382308 M-48.70429646464064 -11.156274872382308 C-48.53398850898557 -11.384472017586157, -48.36368055333051 -11.612669162790006, -47.95665140812659 -12.158051136245302 M-48.70429646464064 -11.156274872382308 C-48.551751766532014 -11.360670870739979, -48.399207068423394 -11.56506686909765, -47.95665140812659 -12.158051136245302 M-47.95665140812659 -12.158051136245302 C-47.71270750119013 -12.444601530134394, -47.46876359425367 -12.731151924023486, -47.14635844296866 -13.10986736009567 M-47.95665140812659 -12.158051136245302 C-47.64551292963612 -12.523532097361176, -47.33437445114564 -12.88901305847705, -47.14635844296866 -13.10986736009567 M-47.14635844296866 -13.10986736009567 C-46.89356928844589 -13.370892916515995, -46.64078013392312 -13.63191847293632, -46.276747236767996 -14.007812326905677 M-47.14635844296866 -13.10986736009567 C-46.962801039724575 -13.299405449288269, -46.77924363648048 -13.488943538480866, -46.276747236767996 -14.007812326905677 M-46.276747236767996 -14.007812326905677 C-46.06450895927368 -14.200561515008912, -45.852270681779366 -14.393310703112146, -45.35139120850189 -14.848196188198107 M-46.276747236767996 -14.007812326905677 C-46.067184702220985 -14.198131476060452, -45.85762216767397 -14.388450625215224, -45.35139120850189 -14.848196188198107 M-45.35139120850189 -14.848196188198107 C-45.110478385871716 -15.040317753286217, -44.869565563241544 -15.232439318374325, -44.37409284457872 -15.627565626425149 M-45.35139120850189 -14.848196188198107 C-45.10466225676525 -15.044955961474928, -44.85793330502861 -15.24171573475175, -44.37409284457872 -15.627565626425149 M-44.37409284457872 -15.627565626425149 C-44.08839267297855 -15.826857698372335, -43.802692501378374 -16.02614977031952, -43.348868073605715 -16.342718045390885 M-44.37409284457872 -15.627565626425149 C-44.07501709893236 -15.836187919807683, -43.77594135328601 -16.044810213190217, -43.348868073605715 -16.342718045390885 M-43.348868073605715 -16.342718045390885 C-42.969230983242824 -16.57285628056405, -42.58959389287993 -16.80299451573721, -42.27992976407679 -16.99071473040609 M-43.348868073605715 -16.342718045390885 C-43.06966595699759 -16.51197200925249, -42.790463840389464 -16.681225973114095, -42.27992976407679 -16.99071473040609 M-42.27992976407679 -16.99071473040609 C-41.958862767111825 -17.158215177069486, -41.637795770146866 -17.32571562373288, -41.17167041279239 -17.56889292409717 M-42.27992976407679 -16.99071473040609 C-41.95022072134698 -17.16272372680951, -41.62051167861717 -17.33473272321293, -41.17167041279239 -17.56889292409717 M-41.17167041279239 -17.56889292409717 C-40.82348742660035 -17.72302320360307, -40.475304440408316 -17.87715348310897, -40.028644095147804 -18.07487676824742 M-41.17167041279239 -17.56889292409717 C-40.94008984722817 -17.67140677087905, -40.70850928166396 -17.773920617660927, -40.028644095147804 -18.07487676824742 M-40.028644095147804 -18.07487676824742 C-39.75247443994344 -18.176509754246936, -39.47630478473907 -18.278142740246448, -38.85554775146062 -18.506587066708033 M-40.028644095147804 -18.07487676824742 C-39.74655899632252 -18.178686692181195, -39.464473897497236 -18.28249661611497, -38.85554775146062 -18.506587066708033 M-38.85554775146062 -18.506587066708033 C-38.51245146346866 -18.60841624403488, -38.16935517547669 -18.71024542136173, -37.65720188623541 -18.862249829261067 M-38.85554775146062 -18.506587066708033 C-38.50519957947693 -18.610568565137708, -38.15485140749324 -18.714550063567387, -37.65720188623541 -18.862249829261067 M-37.65720188623541 -18.862249829261067 C-37.308404740346134 -18.941860501696205, -36.959607594456855 -19.021471174131342, -36.438530759676766 -19.140403561325773 M-37.65720188623541 -18.862249829261067 C-37.172024371147984 -18.9729884310006, -36.686846856060555 -19.083727032740136, -36.438530759676766 -19.140403561325773 M-36.438530759676766 -19.140403561325773 C-36.147271006571 -19.187492179454793, -35.85601125346524 -19.234580797583813, -35.20454215284788 -19.3399052695533 M-36.438530759676766 -19.140403561325773 C-36.12792683585825 -19.190619594959347, -35.81732291203973 -19.240835628592922, -35.20454215284788 -19.3399052695533 M-35.20454215284788 -19.3399052695533 C-34.90928602678344 -19.368388272937292, -34.614029900719 -19.396871276321285, -33.9603067896239 -19.45993515863156 M-35.20454215284788 -19.3399052695533 C-34.81380677076663 -19.377599041934626, -34.42307138868539 -19.415292814315954, -33.9603067896239 -19.45993515863156 M-33.9603067896239 -19.45993515863156 C-33.54200570632899 -19.47334926019916, -33.12370462303409 -19.486763361766762, -32.71093750000001 -19.5 M-33.9603067896239 -19.45993515863156 C-33.67426162380608 -19.4691080703462, -33.38821645798826 -19.478280982060834, -32.71093750000001 -19.5 M-32.71093750000001 -19.5 C-32.71093750000001 -19.5, -32.7109375 -19.5, -32.7109375 -19.5 M-32.71093750000001 -19.5 C-32.71093750000001 -19.5, -32.71093750000001 -19.5, -32.7109375 -19.5" stroke="#ccc" stroke-width="1.3" fill="none" stroke-dasharray="0 0" style=""></path></g><g class="label" style="" transform="translate(-39.8359375, -12)"><rect></rect><foreignObject width="79.671875" height="24"><div xmlns="http://www.w3.org/1999/xhtml" style="display: table-cell; white-space: nowrap; line-height: 1.5; max-width: 200px; text-align: center;"><span class="nodeLabel "><p>👤 Müşteri</p></span></div></foreignObject></g></g><g class="node default svc " id="d_mimari-flowchart-Auth-1" data-look="classic" transform="translate(374.69090270996094, 95)"><rect class="basic label-container" style="fill:#1f6feb !important;stroke:#0d419d !important" x="-90.875" y="-39" width="181.75" height="78"></rect><g class="label" style="color:#fff !important" transform="translate(-60.875, -24)"><rect></rect><foreignObject width="121.75" height="48"><div style="color: rgb(255, 255, 255) !important; display: table-cell; white-space: nowrap; line-height: 1.5; max-width: 200px; text-align: center;" xmlns="http://www.w3.org/1999/xhtml"><span style="color:#fff !important" class="nodeLabel "><p>🔑 <b>Auth Service</b><br/>:8081</p></span></div></foreignObject></g></g><g class="node default svc " id="d_mimari-flowchart-Order-2" data-look="classic" transform="translate(374.69090270996094, 273.3746738433838)"><rect class="basic label-container" style="fill:#1f6feb !important;stroke:#0d419d !important" x="-94.1640625" y="-39" width="188.328125" height="78"></rect><g class="label" style="color:#fff !important" transform="translate(-64.1640625, -24)"><rect></rect><foreignObject width="128.328125" height="48"><div style="color: rgb(255, 255, 255) !important; display: table-cell; white-space: nowrap; line-height: 1.5; max-width: 200px; text-align: center;" xmlns="http://www.w3.org/1999/xhtml"><span style="color:#fff !important" class="nodeLabel "><p>📦 <b>Order Service</b><br/>:8082</p></span></div></foreignObject></g></g><g class="node default svc " id="d_mimari-flowchart-Ship-3" data-look="classic" transform="translate(1081.245590209961, 188.3746738433838)"><rect class="basic label-container" style="fill:#1f6feb !important;stroke:#0d419d !important" x="-108.625" y="-39" width="217.25" height="78"></rect><g class="label" style="color:#fff !important" transform="translate(-78.625, -24)"><rect></rect><foreignObject width="157.25" height="48"><div style="color: rgb(255, 255, 255) !important; display: table-cell; white-space: nowrap; line-height: 1.5; max-width: 200px; text-align: center;" xmlns="http://www.w3.org/1999/xhtml"><span style="color:#fff !important" class="nodeLabel "><p>🚚 <b>Shipment Service</b><br/>:8083</p></span></div></foreignObject></g></g><g class="node default broker " id="d_mimari-flowchart-Rabbit-4" data-look="classic" transform="translate(731.3159027099609, 326.43029975891113)"><polygon points="9.75,0 128.234375,0 137.984375,-19.5 128.234375,-39 9.75,-39 0,-19.5" class="label-container" transform="translate(-68.9921875,19.5)" style="fill:#ff6600 !important;stroke:#b34700 !important"></polygon><g class="label" style="color:#fff !important" transform="translate(-51.7421875, -12)"><rect></rect><foreignObject width="103.484375" height="24"><div style="color: rgb(255, 255, 255) !important; display: table-cell; white-space: nowrap; line-height: 1.5; max-width: 200px; text-align: center;" xmlns="http://www.w3.org/1999/xhtml"><span style="color:#fff !important" class="nodeLabel "><p>🐇 <b>RabbitMQ</b></p></span></div></foreignObject></g></g><g class="node default db " id="d_mimari-flowchart-AuthDB-5" data-look="classic" transform="translate(731.3159027099609, 95)"><path d="M0,11.017897091722595 a49.25,11.017897091722595 0,0,0 98.5,0 a49.25,11.017897091722595 0,0,0 -98.5,0 l0,50.017897091722595 a49.25,11.017897091722595 0,0,0 98.5,0 l0,-50.017897091722595" class="basic label-container outer-path" style="fill:#0d1117 !important;stroke:#30363d !important" label-offset-y="11.017897091722595" transform="translate(-49.25, -36.02684563758389)"></path><g class="label" style="color:#c9d1d9 !important" transform="translate(-41.75, -2)"><rect></rect><foreignObject width="83.5" height="24"><div style="color: rgb(201, 209, 217) !important; display: table-cell; white-space: nowrap; line-height: 1.5; max-width: 200px; text-align: center;" xmlns="http://www.w3.org/1999/xhtml"><span style="color:#c9d1d9 !important" class="nodeLabel "><p>🗄️ auth_db</p></span></div></foreignObject></g></g><g class="node default db " id="d_mimari-flowchart-OrderDB-6" data-look="classic" transform="translate(731.3159027099609, 220.31904792785645)"><path d="M0,11.407503058311812 a52.453125,11.407503058311812 0,0,0 104.90625,0 a52.453125,11.407503058311812 0,0,0 -104.90625,0 l0,50.40750305831181 a52.453125,11.407503058311812 0,0,0 104.90625,0 l0,-50.40750305831181" class="basic label-container outer-path" style="fill:#0d1117 !important;stroke:#30363d !important" label-offset-y="11.407503058311812" transform="translate(-52.453125, -36.61125458746772)"></path><g class="label" style="color:#c9d1d9 !important" transform="translate(-44.953125, -2)"><rect></rect><foreignObject width="89.90625" height="24"><div style="color: rgb(201, 209, 217) !important; display: table-cell; white-space: nowrap; line-height: 1.5; max-width: 200px; text-align: center;" xmlns="http://www.w3.org/1999/xhtml"><span style="color:#c9d1d9 !important" class="nodeLabel "><p>🗄️ order_db</p></span></div></foreignObject></g></g><g class="node default db " id="d_mimari-flowchart-ShipDB-7" data-look="classic" transform="translate(1306.159652709961, 188.3746738433838)"><path d="M0,12.867758568395512 a66.2890625,12.867758568395512 0,0,0 132.578125,0 a66.2890625,12.867758568395512 0,0,0 -132.578125,0 l0,51.867758568395516 a66.2890625,12.867758568395512 0,0,0 132.578125,0 l0,-51.867758568395516" class="basic label-container outer-path" style="fill:#0d1117 !important;stroke:#30363d !important" label-offset-y="12.867758568395512" transform="translate(-66.2890625, -38.801637852593274)"></path><g class="label" style="color:#c9d1d9 !important" transform="translate(-58.7890625, -2)"><rect></rect><foreignObject width="117.578125" height="24"><div style="color: rgb(201, 209, 217) !important; display: table-cell; white-space: nowrap; line-height: 1.5; max-width: 200px; text-align: center;" xmlns="http://www.w3.org/1999/xhtml"><span style="color:#c9d1d9 !important" class="nodeLabel "><p>🗄️ shipment_db</p></span></div></foreignObject></g></g></g></g></g><defs><filter id="d_mimari-drop-shadow" height="130%" width="130%"><feDropShadow dx="4" dy="4" stdDeviation="0" flood-opacity="0.06" flood-color="#FFFFFF"></feDropShadow></filter></defs><defs><filter id="d_mimari-drop-shadow-small" height="150%" width="150%"><feDropShadow dx="2" dy="2" stdDeviation="0" flood-opacity="0.06" flood-color="#FFFFFF"></feDropShadow></filter></defs><linearGradient id="d_mimari-gradient" gradientUnits="objectBoundingBox" x1="0%" y1="0%" x2="100%" y2="0%"><stop offset="0%" stop-color="#cccccc" stop-opacity="1"></stop><stop offset="100%" stop-color="hsl(180, 0%, 18.3529411765%)" stop-opacity="1"></stop></linearGradient></svg>